<?xml version="1.0" standalone="no"?>
<!DOCTYPE svg PUBLIC "-//W3C//DTD SVG 20010904//EN"
 "http://www.w3.org/TR/2001/REC-SVG-20010904/DTD/svg10.dtd">
<svg version="1.0" xmlns="http://www.w3.org/2000/svg"
 width="72.000000pt" height="72.000000pt" viewBox="0 0 72.000000 72.000000"
 preserveAspectRatio="xMidYMid meet">

<g transform="translate(0.000000,72.000000) scale(0.100000,-0.100000)"
fill="#000000" stroke="none">
<path d="M203 690 c-146 -73 -225 -233 -194 -391 24 -122 97 -215 209 -267 48
-22 71 -27 142 -26 72 0 94 4 147 28 76 35 144 104 181 184 23 48 27 70 27
147 0 76 -4 99 -27 147 -36 77 -98 141 -171 178 -55 27 -69 30 -157 30 -88 0
-102 -3 -157 -30z m295 -46 c186 -96 227 -341 83 -497 -166 -180 -473 -88
-522 157 -51 253 211 456 439 340z"/>
</g>
</svg>
