<?xml version="1.0" standalone="no"?>
<!DOCTYPE svg PUBLIC "-//W3C//DTD SVG 20010904//EN"
 "http://www.w3.org/TR/2001/REC-SVG-20010904/DTD/svg10.dtd">
<svg version="1.0" xmlns="http://www.w3.org/2000/svg"
 width="72.000000pt" height="72.000000pt" viewBox="0 0 72.000000 72.000000"
 preserveAspectRatio="xMidYMid meet">
<metadata>
Created by potrace 1.15, written by Peter Selinger 2001-2017
</metadata>
<g transform="translate(0.000000,72.000000) scale(0.100000,-0.100000)"
fill="#000000" stroke="none">
<path d="M88 695 c-56 -38 -83 -103 -82 -200 1 -93 24 -160 85 -255 76 -117
233 -249 282 -236 38 10 157 106 209 170 101 120 154 280 129 389 -25 113 -79
160 -176 155 -68 -4 -124 -37 -151 -90 -8 -15 -18 -28 -22 -27 -4 0 -20 19
-37 41 -39 53 -87 78 -150 78 -37 0 -60 -7 -87 -25z m139 -34 c41 -19 74 -59
105 -126 19 -42 37 -37 67 18 55 101 119 140 185 113 125 -52 106 -278 -38
-459 -50 -62 -157 -147 -186 -147 -29 0 -145 96 -195 162 -60 79 -93 149 -106
227 -18 100 13 190 76 217 39 17 42 17 92 -5z"/>
</g>
</svg>
