<?xml version="1.0" standalone="no"?>
<!DOCTYPE svg PUBLIC "-//W3C//DTD SVG 20010904//EN"
 "http://www.w3.org/TR/2001/REC-SVG-20010904/DTD/svg10.dtd">
<svg version="1.0" xmlns="http://www.w3.org/2000/svg"
 width="72.000000pt" height="72.000000pt" viewBox="0 0 72.000000 72.000000"
 preserveAspectRatio="xMidYMid meet">

<g transform="translate(0.000000,72.000000) scale(0.100000,-0.100000)"
fill="#000000" stroke="none">
<path d="M185 604 c-82 -63 -158 -123 -168 -133 -18 -17 -16 -25 43 -222 34
-112 66 -212 72 -221 8 -16 29 -18 228 -18 199 0 220 2 228 17 5 10 37 109 72
221 50 166 59 206 49 218 -32 39 -330 254 -351 253 -13 0 -85 -48 -173 -115z
m327 -46 c82 -62 148 -119 148 -128 0 -9 -9 -43 -19 -76 -11 -32 -36 -112 -56
-177 l-36 -117 -189 0 -189 0 -31 103 c-18 56 -43 139 -57 184 -14 45 -23 86
-22 92 4 9 289 231 298 231 3 0 71 -50 153 -112z"/>
</g>
</svg>
