<?xml version="1.0" standalone="no"?>
<!DOCTYPE svg PUBLIC "-//W3C//DTD SVG 20010904//EN"
 "http://www.w3.org/TR/2001/REC-SVG-20010904/DTD/svg10.dtd">
<svg version="1.0" xmlns="http://www.w3.org/2000/svg"
 width="72.000000pt" height="72.000000pt" viewBox="0 0 72.000000 72.000000"
 preserveAspectRatio="xMidYMid meet">
<metadata>
Created by potrace 1.15, written by Peter Selinger 2001-2017
</metadata>
<g transform="translate(0.000000,72.000000) scale(0.100000,-0.100000)"
fill="#000000" stroke="none">
<path d="M128 654 c-75 -37 -128 -70 -128 -78 0 -8 44 -40 98 -72 53 -31 99
-59 101 -61 3 -2 -5 -10 -17 -19 -12 -8 -22 -21 -22 -28 0 -8 40 -38 90 -67
50 -29 90 -56 90 -60 0 -4 -7 -9 -15 -13 -37 -14 -5 -41 170 -146 173 -104
215 -121 215 -88 0 7 -45 71 -100 143 -90 118 -97 131 -80 139 33 15 23 39
-50 111 -55 54 -67 71 -55 78 8 4 15 13 15 18 0 6 -30 55 -67 109 -56 81 -73
99 -93 99 -14 0 -82 -29 -152 -65z m200 -57 c51 -74 51 -74 30 -91 -20 -18
-20 -19 53 -93 65 -65 72 -75 57 -84 -10 -6 -18 -16 -18 -24 0 -7 32 -54 70
-104 l70 -91 -100 61 c-96 58 -100 62 -85 79 9 10 14 23 10 29 -3 6 -45 34
-92 63 l-85 52 23 19 c33 26 19 42 -91 106 l-93 54 94 48 c52 26 97 48 100 48
3 1 28 -32 57 -72z"/>
</g>
</svg>
