<?xml version="1.0" standalone="no"?>
<!DOCTYPE svg PUBLIC "-//W3C//DTD SVG 20010904//EN"
 "http://www.w3.org/TR/2001/REC-SVG-20010904/DTD/svg10.dtd">
<svg version="1.0" xmlns="http://www.w3.org/2000/svg"
 width="72.000000pt" height="72.000000pt" viewBox="0 0 72.000000 72.000000"
 preserveAspectRatio="xMidYMid meet">

<g transform="translate(0.000000,72.000000) scale(0.100000,-0.100000)"
fill="#000000" stroke="none">
<path d="M295 595 l-38 -125 -113 0 c-179 0 -183 -9 -49 -112 52 -40 95 -78
95 -83 0 -6 -13 -57 -30 -115 -16 -58 -30 -113 -30 -123 0 -37 31 -27 125 42
54 39 102 68 109 64 6 -3 51 -35 99 -70 86 -63 117 -72 117 -37 0 10 -14 68
-32 131 -17 62 -30 114 -27 116 2 2 46 36 97 76 130 102 126 111 -52 111
l-112 0 -39 125 c-33 110 -41 125 -60 125 -19 0 -26 -15 -60 -125z m125 -160
c8 -10 38 -15 101 -17 l89 -3 -70 -54 c-38 -29 -72 -56 -75 -61 -2 -4 7 -47
21 -95 14 -48 23 -89 20 -92 -2 -3 -33 15 -68 39 -35 25 -68 48 -74 51 -7 4
-46 -18 -88 -48 -42 -30 -76 -51 -76 -47 0 5 11 46 25 93 13 46 25 87 25 91 0
4 -34 35 -76 68 l-77 60 91 0 c108 0 108 0 143 122 l24 81 26 -87 c15 -47 32
-93 39 -101z"/>
</g>
</svg>
