<?xml version="1.0" standalone="no"?>
<!DOCTYPE svg PUBLIC "-//W3C//DTD SVG 20010904//EN"
 "http://www.w3.org/TR/2001/REC-SVG-20010904/DTD/svg10.dtd">
<svg version="1.0" xmlns="http://www.w3.org/2000/svg"
 width="72.000000pt" height="72.000000pt" viewBox="0 0 72.000000 72.000000"
 preserveAspectRatio="xMidYMid meet">

<g transform="translate(0.000000,72.000000) scale(0.100000,-0.100000)"
fill="#000000" stroke="none">
<path d="M287 635 l-62 -85 -108 0 c-82 0 -109 -3 -113 -14 -3 -7 18 -50 47
-95 l51 -82 -51 -81 c-29 -44 -50 -87 -47 -94 4 -11 32 -14 114 -14 l108 0 51
-73 c28 -40 59 -79 67 -87 21 -17 34 -5 101 89 l50 71 108 0 c82 0 109 3 113
14 3 7 -18 50 -46 95 l-52 81 52 81 c28 44 49 87 46 95 -4 11 -29 14 -114 14
l-109 0 -39 57 c-51 74 -83 113 -95 113 -5 0 -37 -38 -72 -85z m271 -133 l92
-3 -46 -69 -47 -70 42 -63 c22 -35 41 -66 41 -70 0 -3 -39 -8 -87 -9 l-87 -3
-51 -72 c-27 -40 -52 -72 -55 -72 -3 0 -28 32 -55 72 l-51 72 -87 3 c-48 1
-87 5 -87 8 0 2 18 34 41 69 l41 65 -41 63 c-23 35 -41 66 -41 70 0 4 38 7 85
7 l85 0 56 75 55 76 53 -73 52 -73 92 -3z"/>
</g>
</svg>
