<?xml version="1.0" standalone="no"?>
<!DOCTYPE svg PUBLIC "-//W3C//DTD SVG 20010904//EN"
 "http://www.w3.org/TR/2001/REC-SVG-20010904/DTD/svg10.dtd">
<svg version="1.0" xmlns="http://www.w3.org/2000/svg"
 width="72.000000pt" height="72.000000pt" viewBox="0 0 72.000000 72.000000"
 preserveAspectRatio="xMidYMid meet">

<g transform="translate(0.000000,72.000000) scale(0.100000,-0.100000)"
fill="#000000" stroke="none">
<path d="M315 633 c-14 -49 -32 -106 -39 -127 l-12 -40 -125 -41 c-165 -55
-165 -63 2 -122 l126 -44 38 -130 c34 -115 41 -129 60 -129 20 0 27 14 61 129
l38 130 125 43 c168 59 168 67 2 123 -106 35 -126 45 -132 66 -4 13 -22 70
-39 127 -28 92 -33 102 -55 102 -21 0 -27 -9 -50 -87z m207 -235 l99 -33 -99
-33 -99 -33 -29 -99 -29 -99 -29 99 -29 99 -99 33 -99 33 99 33 99 32 29 100
29 99 29 -99 29 -100 99 -32z"/>
</g>
</svg>
