<?xml version="1.0" standalone="no"?>
<!DOCTYPE svg PUBLIC "-//W3C//DTD SVG 20010904//EN"
 "http://www.w3.org/TR/2001/REC-SVG-20010904/DTD/svg10.dtd">
<svg version="1.0" xmlns="http://www.w3.org/2000/svg"
 width="72.000000pt" height="72.000000pt" viewBox="0 0 72.000000 72.000000"
 preserveAspectRatio="xMidYMid meet">

<g transform="translate(0.000000,72.000000) scale(0.100000,-0.100000)"
fill="#000000" stroke="none">
<path d="M168 395 c-123 -239 -168 -334 -168 -360 l0 -35 360 0 360 0 0 36 c0
26 -43 118 -167 360 -153 295 -170 324 -193 324 -23 0 -40 -29 -192 -325z
m347 -36 c83 -160 151 -295 153 -300 2 -5 -121 -9 -308 -9 -171 0 -310 4 -308
9 11 30 304 591 308 591 3 0 73 -131 155 -291z"/>
</g>
</svg>
